<?xml version="1.0" encoding="UTF-8"?>
<svg version="1.1" xmlns="http://www.w3.org/2000/svg" width="512" height="512">
<path d="M0 0 C1.29818785 0.46273988 2.59668355 0.92461688 3.89546204 1.38569641 C7.38079238 2.62574357 10.86172168 3.87773002 14.34193802 5.13204575 C18.00985503 6.45163434 21.68178231 7.75997091 25.35327148 9.06958008 C32.05878763 11.46326948 38.7608639 13.86641964 45.46127033 16.27437115 C52.2648681 18.71924987 59.07168008 21.15508474 65.87890625 23.58984375 C74.46822787 26.66348931 83.05518918 29.74364354 91.640625 32.828125 C105.86334581 37.93732085 120.09528714 43.02063043 134.328125 48.1015625 C135.45993195 48.50563324 136.59173889 48.90970398 137.75784302 49.32601929 C139.96849817 50.1152427 142.17917602 50.90440255 144.38987732 51.6934967 C146.54149662 52.46166485 148.69299815 53.23016299 150.84437561 53.99900818 C156.09669779 55.87551161 161.35049002 57.7476692 166.60825825 59.60885334 C169.22384791 60.53506677 171.83868164 61.46340327 174.45344353 62.39195061 C176.32408688 63.05527828 178.19579528 63.71559996 180.06752014 64.37586975 C181.19113449 64.77511154 182.31474884 65.17435333 183.47241211 65.58569336 C184.47195419 65.93933456 185.47149628 66.29297577 186.50132751 66.65733337 C188.765625 67.5390625 188.765625 67.5390625 189.765625 68.5390625 C189.64183278 81.65457285 187.43023957 94.92288027 185.92993164 107.93212891 C185.63723068 110.48922067 185.34477201 113.04634017 185.05253601 115.60348511 C184.26236051 122.51217163 183.4677448 129.42034292 182.67222142 136.32841539 C182.17514143 140.64516392 181.67905119 144.96202583 181.1831646 149.27891159 C179.80829701 161.24651256 178.43248782 173.21400413 177.05257511 185.18102455 C176.96458502 185.94410554 176.87659493 186.70718653 176.78593847 187.49339118 C176.6075949 189.04001205 176.42925056 190.58663283 176.25090546 192.13325353 C176.16238644 192.90090584 176.07386743 193.66855815 175.98266602 194.45947266 C175.89403769 195.22806623 175.80540937 195.99665981 175.71409535 196.7885441 C174.274141 209.27761885 172.84133847 221.76750279 171.41163284 234.25775452 C169.94150271 247.10033737 168.46571178 259.94225909 166.98412031 272.78352487 C166.15321004 279.98630657 165.32470772 287.18934692 164.50239754 294.393116 C163.7304134 301.15568046 162.9506684 307.91730486 162.16559029 314.6783638 C161.87834603 317.16295269 161.59371229 319.64784494 161.31184006 322.13304901 C160.92765507 325.51676712 160.53419901 328.89927976 160.13832092 332.28164673 C159.97298995 333.767315 159.97298995 333.767315 159.80431896 335.28299677 C159.64251807 336.64051666 159.64251807 336.64051666 159.47744846 338.0254612 C159.3876171 338.80617159 159.29778573 339.58688197 159.2052322 340.39125025 C158.44838566 344.08901558 157.49491722 346.05191608 154.33325195 348.16381836 C153.31706787 348.68854736 152.30088379 349.21327637 151.25390625 349.75390625 C150.11574463 350.35066162 148.97758301 350.94741699 147.80493164 351.56225586 C147.19811554 351.87387665 146.59129944 352.18549744 145.96609497 352.50656128 C142.74644301 354.16075408 139.54680393 355.85302432 136.34375 357.5390625 C135.37176414 358.04861732 135.37176414 358.04861732 134.38014221 358.56846619 C128.62975019 361.58938253 122.96754789 364.75331227 117.328125 367.9765625 C108.80155386 372.83454212 100.23666064 377.61797666 91.640625 382.3515625 C91.03262054 382.68645691 90.42461609 383.02135132 89.79818726 383.36639404 C86.69791559 385.07381377 83.59715733 386.78034717 80.49609375 388.48632812 C74.37526265 391.85382483 68.25778202 395.22739761 62.140625 398.6015625 C61.53982117 398.93290192 60.93901733 399.26424133 60.32000732 399.60562134 C50.52510913 405.00801971 40.74435418 410.43555725 30.96875 415.87280273 C21.15589925 421.32831483 11.32710939 426.75468078 1.49414062 432.17382812 C0.35396484 432.80224609 -0.78621094 433.43066406 -1.9609375 434.078125 C-3.57983887 434.96226074 -3.57983887 434.96226074 -5.23144531 435.86425781 C-7.12644852 436.92114578 -9.00407859 438.01040913 -10.85449219 439.14355469 C-11.62696289 439.61180664 -12.39943359 440.08005859 -13.1953125 440.5625 C-13.84032715 440.97161621 -14.4853418 441.38073242 -15.14990234 441.80224609 C-19.12995158 443.20910819 -22.41333561 441.91735663 -26.11743164 440.21069336 C-27.61584595 439.36583374 -27.61584595 439.36583374 -29.14453125 438.50390625 C-30.28422363 437.86767334 -31.42391602 437.23144043 -32.59814453 436.57592773 C-33.83110073 435.87622045 -35.06400958 435.17642973 -36.296875 434.4765625 C-37.58915486 433.7517467 -38.88197097 433.02788626 -40.17529297 432.30493164 C-42.86226329 430.80200057 -45.54688018 429.29498453 -48.22998047 427.78515625 C-53.82033464 424.64382119 -59.44021119 421.55636525 -65.05929565 418.46682739 C-76.08057668 412.40376818 -87.07785499 406.29760257 -98.07080078 400.18334961 C-106.2825439 395.6180129 -114.50595901 391.07424265 -122.734375 386.5390625 C-135.43676679 379.53748247 -148.11953037 372.50104449 -160.79492188 365.45068359 C-164.4453236 363.42181892 -168.09747594 361.3961338 -171.75 359.37109375 C-173.60426364 358.34260424 -175.45848278 357.31403455 -177.31268311 356.28543091 C-179.06442481 355.31398995 -180.8166302 354.34338529 -182.56884766 353.37280273 C-184.162854 352.48830444 -184.162854 352.48830444 -185.7890625 351.5859375 C-186.72218262 351.06870117 -187.65530273 350.55146484 -188.61669922 350.01855469 C-189.91244873 349.28620605 -189.91244873 349.28620605 -191.234375 348.5390625 C-192.08807242 348.12662452 -192.94176983 347.71418654 -193.82133687 347.28925043 C-196.234375 345.5390625 -196.234375 345.5390625 -197.11166084 343.01765674 C-197.22683087 342.04049593 -197.3420009 341.06333512 -197.46066093 340.05656338 C-197.66798493 338.44473873 -197.66798493 338.44473873 -197.87949729 336.80035198 C-197.99660693 335.72412645 -198.11371658 334.64790092 -198.234375 333.5390625 C-198.35453295 332.61205949 -198.4746909 331.68505648 -198.59849 330.72996247 C-198.96282274 327.90884213 -199.29175697 325.0852962 -199.61380005 322.25904846 C-199.73801547 321.19059958 -199.86223089 320.1221507 -199.99021041 319.02132457 C-200.40145687 315.47751436 -200.80840615 311.93322474 -201.21533203 308.38891602 C-201.51093796 305.83368566 -201.80680256 303.27848521 -202.10290527 300.72331238 C-202.82041429 294.52723064 -203.5346734 288.33077852 -204.24774207 282.13418437 C-204.82726812 277.09863227 -205.40800358 272.06322099 -205.98958969 267.02790642 C-206.07257955 266.30938199 -206.15556941 265.59085756 -206.24107411 264.85055966 C-206.40969808 263.39066639 -206.57832503 261.93077345 -206.7469549 260.47088086 C-208.32455066 246.81183894 -209.89846528 233.15237481 -211.47108351 219.49275904 C-212.82019867 207.7752023 -214.17239779 196.0580048 -215.52685547 184.34106445 C-217.10169726 170.7176414 -218.67470259 157.09400843 -220.24472702 143.47002929 C-220.41207984 142.01785536 -220.57943478 140.56568167 -220.74679184 139.11350822 C-220.82912517 138.39908297 -220.9114585 137.68465771 -220.99628679 136.9485832 C-221.57636277 131.91622515 -222.15774517 126.88401902 -222.73962784 121.85186958 C-223.5220924 115.08470739 -224.30152868 108.31720298 -225.07891846 101.54945564 C-225.36496196 99.06325526 -225.65197915 96.57716668 -225.94002914 94.09119797 C-226.33228786 90.70449192 -226.72105465 87.31740295 -227.10891724 83.93019104 C-227.22428145 82.94129413 -227.33964566 81.95239721 -227.45850575 80.93353373 C-227.56177422 80.02529602 -227.66504269 79.11705832 -227.77144051 78.18129826 C-227.86148924 77.39988344 -227.95153797 76.61846863 -228.04431546 75.81337458 C-228.24776498 73.37883386 -228.26634644 70.98095981 -228.234375 68.5390625 C-220.48258303 65.22596756 -212.6898085 62.18561419 -204.7265625 59.421875 C-203.65988342 59.04828354 -202.59320435 58.67469208 -201.49420166 58.28977966 C-199.21591594 57.49215727 -196.93709403 56.69606499 -194.65777588 55.90139771 C-188.5712988 53.77902974 -182.48908958 51.64448463 -176.40625 49.51171875 C-175.18700836 49.08457077 -173.96776672 48.65742279 -172.71157837 48.21733093 C-162.24738244 44.54946164 -151.79892018 40.83894091 -141.359375 37.1015625 C-140.53967224 36.80824036 -139.71996948 36.51491821 -138.87542725 36.21270752 C-135.46191117 34.99115659 -132.04851296 33.76927752 -128.63534546 32.54675293 C-121.31306015 29.92416817 -113.98879575 27.30714542 -106.6640625 24.69140625 C-105.48599533 24.27054749 -104.30792816 23.84968872 -103.09416199 23.41607666 C-97.08556614 21.26985687 -91.07604896 19.12628258 -85.06469727 16.98779297 C-74.91932846 13.37592407 -64.77836328 9.75704206 -54.67910767 6.01779175 C-50.79284478 4.57927612 -46.90205116 3.15324971 -43.01098633 1.7277832 C-41.22424709 1.06866495 -39.439974 0.40281615 -37.65844727 -0.27026367 C-35.22217724 -1.19054932 -32.77849155 -2.08769776 -30.33203125 -2.98046875 C-29.637715 -3.25018997 -28.94339874 -3.51991119 -28.2280426 -3.79780579 C-18.29178135 -7.35125036 -9.49438655 -3.44208696 0 0 Z " fill="#DD0031" transform="translate(275.234375,37.4609375)"/>
<path d="M0 0 C7.46381552 1.46459961 14.42767048 3.76784924 21.578125 6.33984375 C22.79690338 6.77346725 24.01568176 7.20709076 25.27139282 7.65385437 C28.57767575 8.83036396 31.88156291 10.0134679 35.18502045 11.19788361 C38.6755309 12.44808424 42.16823014 13.69214201 45.66064453 14.93701172 C53.45070651 17.71517785 61.23746604 20.50252166 69.02348328 23.29199982 C72.08086627 24.3871728 75.13858892 25.48139644 78.19628906 26.57568359 C87.97691287 30.07653049 97.75598807 33.58166695 107.53321838 37.09197998 C122.87048689 42.59848566 138.21539166 48.08348449 153.5625 53.5625 C154.69403503 53.9664801 155.82557007 54.37046021 156.99139404 54.78668213 C159.20218595 55.57595293 161.41300113 56.36515857 163.62384033 57.15429688 C165.77561312 57.92251337 167.92726726 58.69106228 170.07879639 59.45996094 C175.33110286 61.33646055 180.58488018 63.20861206 185.84263325 65.06979084 C188.45822291 65.99600427 191.07305664 66.92434077 193.68781853 67.85288811 C195.55846188 68.51621578 197.43017028 69.17653746 199.30189514 69.83680725 C200.42550949 70.23604904 201.54912384 70.63529083 202.70678711 71.04663086 C203.70632919 71.40027206 204.70587128 71.75391327 205.73570251 72.11827087 C208 73 208 73 209 74 C208.87620778 87.11551035 206.66461457 100.38381777 205.16430664 113.39306641 C204.87160568 115.95015817 204.57914701 118.50727767 204.28691101 121.06442261 C203.49673551 127.97310913 202.7021198 134.88128042 201.90659642 141.78935289 C201.40951643 146.10610142 200.91342619 150.42296333 200.4175396 154.73984909 C199.04267201 166.70745006 197.66686282 178.67494163 196.28695011 190.64196205 C196.19896002 191.40504304 196.11096993 192.16812403 196.02031347 192.95432868 C195.8419699 194.50094955 195.66362556 196.04757033 195.48528046 197.59419103 C195.39676144 198.36184334 195.30824243 199.12949565 195.21704102 199.92041016 C195.12841269 200.68900373 195.03978437 201.45759731 194.94847035 202.2494816 C193.508516 214.73855635 192.07571347 227.22844029 190.64600784 239.71869202 C189.17587771 252.56127487 187.70008678 265.40319659 186.21849531 278.24446237 C185.38758504 285.44724407 184.55908272 292.65028442 183.73677254 299.8540535 C182.9647884 306.61661796 182.1850434 313.37824236 181.39996529 320.1393013 C181.11272103 322.62389019 180.82808729 325.10878244 180.54621506 327.59398651 C180.16203007 330.97770462 179.76857401 334.36021726 179.37269592 337.74258423 C179.26247528 338.73302974 179.15225463 339.72347526 179.03869396 340.74393427 C178.9308267 341.64894753 178.82295943 342.55396079 178.71182346 343.4863987 C178.6219921 344.26710909 178.53216073 345.04781947 178.4396072 345.85218775 C177.68276066 349.54995308 176.72929222 351.51285358 173.56762695 353.62475586 C172.04335083 354.41184937 172.04335083 354.41184937 170.48828125 355.21484375 C168.78103882 356.10997681 168.78103882 356.10997681 167.03930664 357.02319336 C166.43249054 357.33481415 165.82567444 357.64643494 165.20046997 357.96749878 C161.98081801 359.62169158 158.78117893 361.31396182 155.578125 363 C154.93013443 363.33970322 154.28214386 363.67940643 153.61451721 364.02940369 C147.86412519 367.05032003 142.20192289 370.21424977 136.5625 373.4375 C128.03592886 378.29547962 119.47103564 383.07891416 110.875 387.8125 C110.26699554 388.14739441 109.65899109 388.48228882 109.03256226 388.82733154 C105.93229059 390.53475127 102.83153233 392.24128467 99.73046875 393.94726562 C93.60963765 397.31476233 87.49215702 400.68833511 81.375 404.0625 C80.47379425 404.55950912 80.47379425 404.55950912 79.55438232 405.06655884 C69.75948413 410.46895721 59.97872918 415.89649475 50.203125 421.33374023 C40.39027425 426.78925233 30.56148439 432.21561828 20.72851562 437.63476562 C19.01825195 438.57739258 19.01825195 438.57739258 17.2734375 439.5390625 C16.19932617 440.12977539 15.12521484 440.72048828 14.01855469 441.32910156 C12.08628227 442.39869655 10.15928062 443.47790451 8.23925781 444.56933594 C7.02641113 445.25817871 7.02641113 445.25817871 5.7890625 445.9609375 C4.75193115 446.55720947 4.75193115 446.55720947 3.69384766 447.16552734 C2 448 2 448 0 448 C0 391.57 0 335.14 0 277 C18.48 277 36.96 277 56 277 C62.23914812 292.64243564 62.23914812 292.64243564 64.88671875 299.296875 C66.695452 303.84291311 68.50493982 308.38864086 70.31884766 312.93261719 C71.78070629 316.59481871 73.23924069 320.25832765 74.69544983 323.92277908 C75.25245723 325.32273366 75.81067417 326.7222076 76.37010193 328.12119675 C77.15160565 330.07613287 77.9288462 332.03271193 78.70507812 333.98974609 C79.14920044 335.1044931 79.59332275 336.21924011 80.05090332 337.36776733 C81 340 81 340 81 342 C97.17 342 113.34 342 130 342 C127.03 335.73 124.06 329.46 121 323 C116.31535637 312.45408422 116.31535637 312.45408422 114.72460938 308.78710938 C112.43008506 303.5068123 110.12576941 298.23085514 107.81640625 292.95703125 C107.41660553 292.04398224 107.01680481 291.13093323 106.60488892 290.19021606 C102.46970884 280.76342405 98.24020971 271.3799 94 262 C87.53009739 247.68312202 81.16948198 233.32204884 74.875 218.92724609 C69.3288458 206.24860278 63.69830201 193.61095571 58 181 C51.91621345 167.53592551 45.91959109 154.03706436 40 140.5 C33.95297447 126.67262001 27.83061694 112.88195907 21.625 99.125 C21.24973175 98.29278931 20.8744635 97.46057861 20.48782349 96.60314941 C19.02363792 93.35619838 17.55919919 90.10936168 16.09443665 86.8626709 C12.6966695 79.33050853 9.30830031 71.7942705 5.9375 64.25 C5.44266113 63.14930176 4.94782227 62.04860352 4.43798828 60.91455078 C3.99310059 59.91665527 3.54821289 58.91875977 3.08984375 57.890625 C2.51544556 56.60720215 2.51544556 56.60720215 1.92944336 55.29785156 C0.37950309 51.46595301 -0.1241756 48.18013243 -0.11352539 44.04785156 C-0.11344986 43.06713684 -0.11337433 42.08642212 -0.11329651 41.07598877 C-0.10813522 40.02481873 -0.10297394 38.97364868 -0.09765625 37.890625 C-0.0962413 36.80867859 -0.09482635 35.72673218 -0.09336853 34.61199951 C-0.08777318 31.1579715 -0.0752215 27.70400841 -0.0625 24.25 C-0.0574844 21.90755302 -0.0529216 19.56510502 -0.04882812 17.22265625 C-0.03780528 11.4817487 -0.02107174 5.74087899 0 0 Z " fill="#C3002F" transform="translate(256,32)"/>
<path d="M0 0 C0.66 0 1.32 0 2 0 C9.10205283 15.11151934 15.93890315 30.32563722 22.625 45.625 C28.66865534 59.45427532 34.783984 73.24732314 41 87 C47.4696886 101.3169762 53.83051675 115.67794825 60.125 130.07275391 C65.6711542 142.75139722 71.30169799 155.38904429 77 168 C83.08378703 181.46407556 89.08033446 194.96296748 95 208.5 C102.49221524 225.63106376 110.12196767 242.69718796 117.81640625 259.73828125 C118.15257965 260.48365143 118.48875305 261.22902161 118.83511353 261.99697876 C120.72355945 266.18222125 122.62089566 270.36322866 124.52685547 274.54052734 C125.36037015 276.37466603 126.19386667 278.20881297 127.02734375 280.04296875 C127.62235435 281.34044792 127.62235435 281.34044792 128.22938538 282.66413879 C128.59188889 283.46357407 128.9543924 284.26300934 129.32788086 285.08666992 C129.6512291 285.79514572 129.97457733 286.50362152 130.307724 287.23356628 C131 289 131 289 131 291 C114.83 291 98.66 291 82 291 C73.42 269.55 64.84 248.1 56 226 C19.37 225.67 -17.26 225.34 -55 225 C-55.33 226.65 -55.66 228.3 -56 230 C-56.72592547 232.03495227 -57.49769577 234.05381553 -58.30078125 236.05957031 C-58.77797607 237.25721008 -59.2551709 238.45484985 -59.74682617 239.68878174 C-60.26854865 240.98529743 -60.79044401 242.28174357 -61.3125 243.578125 C-61.84706319 244.91367713 -62.38131977 246.24935202 -62.9152832 247.58514404 C-64.0323003 250.37686174 -65.15223904 253.16738298 -66.27441406 255.95703125 C-67.71505862 259.53873859 -69.14955476 263.12286914 -70.58204651 266.70784378 C-71.68323341 269.46234235 -72.78702938 272.21578911 -73.89169312 274.96889496 C-74.42185256 276.29077129 -74.95133365 277.6129199 -75.48013306 278.93534088 C-76.21725873 280.77726026 -76.9581431 282.61767411 -77.69921875 284.45800781 C-78.33089966 286.03089569 -78.33089966 286.03089569 -78.9753418 287.63555908 C-80 290 -80 290 -81 291 C-82.50418739 291.09311889 -84.01271356 291.11746028 -85.51977539 291.11352539 C-86.96115623 291.11341209 -86.96115623 291.11341209 -88.43165588 291.11329651 C-89.476436 291.10813522 -90.52121613 291.10297394 -91.59765625 291.09765625 C-93.19364906 291.09553383 -93.19364906 291.09553383 -94.82188416 291.09336853 C-98.23545083 291.08775064 -101.648953 291.07519511 -105.0625 291.0625 C-107.37044176 291.05748731 -109.67838455 291.052924 -111.98632812 291.04882812 C-117.65757426 291.0377754 -123.32878253 291.02101987 -129 291 C-127.12009023 285.02929952 -124.93987243 279.32472364 -122.33203125 273.63671875 C-121.80486259 272.47204575 -121.80486259 272.47204575 -121.26704407 271.28384399 C-120.5125614 269.61810091 -119.75611519 267.95324601 -118.99786377 266.28921509 C-117.36979554 262.71582286 -115.7518079 259.13789595 -114.13330078 255.56016541 C-113.29977711 253.71772262 -112.46578996 251.87548944 -111.63134766 250.03346252 C-107.75682854 241.47705843 -103.93287861 232.89872589 -100.125 224.3125 C-99.47985152 222.85887171 -98.8346689 221.40525857 -98.18945312 219.95166016 C-96.84937773 216.93214097 -95.5097617 213.91241845 -94.17041016 210.89257812 C-90.05492064 201.6141922 -85.93388571 192.33826803 -81.8125 183.0625 C-81.38181213 182.09309479 -80.95112427 181.12368958 -80.50738525 180.12490845 C-75.03167599 167.80140348 -69.53751605 155.48660115 -64.01098633 143.18579102 C-58.97684139 131.97073295 -53.98909997 120.73515087 -49 109.5 C-43.03324061 96.06321935 -37.05381558 82.63267369 -31.02709961 69.22265625 C-27.65813763 61.71864399 -24.31061029 54.20534994 -20.97265625 46.6875 C-20.30591385 45.18600403 -20.30591385 45.18600403 -19.6257019 43.6541748 C-17.40783814 38.65877843 -15.19133273 33.6627843 -12.9765625 28.66601562 C-8.72287113 19.07635789 -4.44390757 9.50345026 0 0 Z " fill="#FEFDFD" transform="translate(255,83)"/>
<path d="M0 0 C0.66 0 1.32 0 2 0 C2.36536865 0.91136719 2.7307373 1.82273438 3.10717773 2.76171875 C4.87894241 7.17650139 6.65699684 11.58873503 8.4375 16 C8.93162384 17.2243425 8.93162384 17.2243425 9.43572998 18.47341919 C15.52444344 33.53812437 21.83554008 48.50205178 28.27514648 63.41992188 C28.62003616 64.22325455 28.96492584 65.02658722 29.32026672 65.85426331 C29.95148837 67.32451981 30.58589924 68.79341495 31.22477722 70.26036072 C34.15192092 77.0915738 36.48199183 83.94957712 39 91 C13.92 91 -11.16 91 -37 91 C-34.96050497 84.88151491 -32.84510617 78.99782076 -30.33203125 73.0859375 C-29.97967911 72.24892807 -29.62732697 71.41191864 -29.26429749 70.54954529 C-28.5083612 68.75434487 -27.75101455 66.95973779 -26.99237061 65.16567993 C-24.9758408 60.39609822 -22.97038698 55.62186587 -20.96484375 50.84765625 C-20.55470032 49.87179062 -20.14455688 48.89592499 -19.72198486 47.89048767 C-15.38322938 37.55430022 -11.12138343 27.18691389 -6.875 16.8125 C-6.34841293 15.52638824 -6.34841293 15.52638824 -5.81118774 14.21429443 C-3.87194838 9.47708406 -1.93488484 4.73899054 0 0 Z " fill="#DD0233" transform="translate(255,177)"/>
<path d="M0 0 C3 1 3 1 3.98114014 2.62434387 C4.26676819 3.33072495 4.55239624 4.03710602 4.84667969 4.76489258 C5.17894562 5.57081345 5.51121155 6.37673431 5.85354614 7.20707703 C6.20609467 8.09393692 6.55864319 8.98079681 6.921875 9.89453125 C7.29915741 10.81760574 7.67643982 11.74068024 8.06515503 12.69172668 C9.30363982 15.72794515 10.52676475 18.7701096 11.75 21.8125 C12.59828721 23.90004833 13.44774168 25.9871227 14.29833984 28.07373047 C15.595632 31.25694625 16.89196142 34.44052316 18.18405151 37.62585449 C20.93604329 44.40879839 23.72444738 51.175123 26.5546875 57.92578125 C26.90446655 58.76041397 27.25424561 59.59504669 27.61462402 60.45497131 C28.94044743 63.61604752 30.26770619 66.77651124 31.59802246 69.93569946 C32.49752618 72.07328577 33.39359759 74.21228186 34.2890625 76.3515625 C34.79131348 77.54604004 35.29356445 78.74051758 35.81103516 79.97119141 C37 83 37 83 38 87 C25.46 87 12.92 87 0 87 C0 58.29 0 29.58 0 0 Z " fill="#C30230" transform="translate(256,181)"/>
</svg>
