<?xml version="1.0" encoding="UTF-8"?>
<svg version="1.1" xmlns="http://www.w3.org/2000/svg" width="512" height="512">
<path d="M0 0 C0.83070772 -0.01158677 1.66141545 -0.02317354 2.51729614 -0.03511143 C5.28126911 -0.07098303 8.04516178 -0.09289963 10.8092804 -0.11450195 C12.79920161 -0.1368741 14.78911555 -0.1599014 16.77902222 -0.18353271 C23.29592047 -0.25638315 29.81289366 -0.30704401 36.33003235 -0.3527832 C37.99650704 -0.3646208 37.99650704 -0.3646208 39.69664788 -0.37669754 C50.18409906 -0.44950403 60.67157806 -0.51234699 71.15919781 -0.55491638 C84.5451632 -0.61006787 97.92900999 -0.711658 111.31409329 -0.87586498 C120.74280824 -0.98759874 130.17094949 -1.04540848 139.60030299 -1.0638628 C145.22489986 -1.07635091 150.84700646 -1.11233852 156.47087669 -1.20663452 C161.76528438 -1.29431595 167.05585535 -1.31484789 172.35086632 -1.2853775 C174.28548346 -1.28603194 176.22027186 -1.31036639 178.1542244 -1.36107635 C193.45133968 -1.74077356 193.45133968 -1.74077356 199.34612465 3.36251831 C202.21321046 6.23797019 204.724249 9.31427725 207.11222327 12.59457207 C208.96757299 15.13958361 210.99299965 17.53860925 213.0058136 19.9597168 C213.70964172 20.83885742 214.41346985 21.71799805 215.1386261 22.6237793 C217.6198791 25.62376115 220.22945667 28.48625331 222.8808136 31.3347168 C226.33245414 35.04331214 229.64603654 38.81977756 232.8183136 42.7722168 C236.18427625 46.95708986 239.71257377 50.91786078 243.3808136 54.8347168 C247.83953555 59.59563013 252.01878983 64.49939243 256.10346985 69.58862305 C258.5990775 72.59790637 261.21844841 75.47411966 263.8808136 78.3347168 C267.33243296 82.04333367 270.64603508 85.81977575 273.8183136 89.7722168 C277.18428418 93.95709972 280.71264626 97.91778207 284.3808136 101.8347168 C288.84534305 106.60354993 293.07781884 111.49123635 297.15034485 116.60424805 C299.20396492 119.23606774 299.20396492 119.23606774 301.09910607 120.9634003 C305.72423601 125.55348907 307.190128 128.81754664 307.30769324 135.31183058 C307.29071395 136.3210702 307.27373466 137.33030981 307.25624084 138.37013245 C307.27050405 140.00609836 307.27050405 140.00609836 307.2850554 141.6751141 C307.30824171 145.31961235 307.281526 148.9619967 307.25483704 152.60644531 C307.26105003 155.22365667 307.27027107 157.84086237 307.28227234 160.45805359 C307.30565824 166.8243206 307.29156266 173.18997467 307.26433381 179.55620528 C307.23377884 186.98178767 307.23871041 194.40722191 307.24456123 201.83284938 C307.25362508 215.09409412 307.22781942 228.35504723 307.18354797 241.61621094 C307.14068543 254.45778451 307.12643638 267.29898895 307.14253235 280.140625 C307.16004497 294.14311468 307.16168217 308.14543717 307.13594842 322.14792007 C307.13321552 323.64470954 307.13048918 325.14149901 307.12776947 326.6382885 C307.12640812 327.37459947 307.12504676 328.11091043 307.12364416 328.86953386 C307.11505882 334.03330571 307.1172467 339.19700767 307.12342072 344.36078072 C307.13050936 350.66792919 307.11904914 356.97474108 307.08491287 363.28180576 C307.06792762 366.493951 307.06120476 369.7055 307.07104874 372.91769028 C307.13341758 396.4536348 303.32295057 413.05146298 286.3808136 430.3347168 C285.71565735 431.0359668 285.0505011 431.7372168 284.3651886 432.4597168 C273.10641844 443.46065253 258.56434639 448.59419704 243.08003235 448.51049805 C241.85929016 448.49374023 240.63854797 448.47698242 239.3808136 448.4597168 C238.12913391 448.45069336 236.87745422 448.44166992 235.58784485 448.43237305 C232.5186335 448.40894395 229.44982604 448.37613827 226.3808136 448.3347168 C226.40546692 449.04104248 226.43012024 449.74736816 226.45552063 450.47509766 C226.78322612 466.75710387 219.75481769 480.25547405 208.7089386 491.9597168 C207.94065735 492.7434668 207.1723761 493.5272168 206.3808136 494.3347168 C205.71565735 495.0359668 205.0505011 495.7372168 204.3651886 496.4597168 C192.97890519 507.58524562 178.21017921 512.65124059 162.5597229 512.60214233 C161.49216914 512.60667345 160.42461538 512.61120456 159.3247115 512.61587298 C155.75913927 512.62850019 152.19372012 512.62689766 148.62812805 512.62524414 C146.06679081 512.63123047 143.50545538 512.63803625 140.94412231 512.64559937 C134.71509003 512.66142379 128.48611351 512.66770736 122.25706301 512.66882412 C117.1901401 512.66977635 112.12322963 512.67389538 107.05631065 512.68022537 C92.67099071 512.69782918 78.28570054 512.70706572 63.90036974 512.70556442 C63.12571553 512.70548451 62.35106132 512.7054046 61.55293274 512.70532227 C60.77732572 512.7052405 60.00171869 512.70515874 59.20260843 512.7050745 C46.64092036 512.7042621 34.07935234 512.72339054 21.51769898 512.751599 C8.60020265 512.78037615 -4.31723522 512.79413661 -17.2347644 512.79241145 C-24.47918986 512.79174916 -31.7234895 512.79717038 -38.96788597 512.81876755 C-45.78466104 512.83896057 -52.60116702 512.8382564 -59.4179554 512.82373428 C-61.91358199 512.82164825 -64.40922528 512.8263347 -66.9048233 512.8384552 C-88.9562412 512.93857869 -105.61515224 509.91849827 -121.9004364 494.04174805 C-123.24621765 492.70176758 -123.24621765 492.70176758 -124.6191864 491.3347168 C-125.62465515 490.38145508 -125.62465515 490.38145508 -126.6504364 489.40893555 C-130.71829383 485.23938168 -133.31223213 480.48564096 -135.9316864 475.3347168 C-136.26974304 474.66996338 -136.60779968 474.00520996 -136.95610046 473.3203125 C-141.44984604 464.06306002 -141.91230921 455.67935625 -141.89334106 445.4967041 C-141.89779822 444.09051813 -141.90311384 442.68433467 -141.90920979 441.27815485 C-141.92334334 437.4277617 -141.92505396 433.57744946 -141.92461288 429.72703409 C-141.92626524 425.56866709 -141.93933968 421.41033302 -141.95080566 417.25198364 C-141.97362395 408.16489647 -141.98157309 399.07783269 -141.98663211 389.99072075 C-141.98989329 384.31129993 -141.99641838 378.63188587 -142.0036335 372.95246887 C-142.02319651 357.21260548 -142.03960206 341.47274834 -142.04251003 325.73287201 C-142.0426976 324.72625492 -142.04288517 323.71963784 -142.04307843 322.6825172 C-142.04344467 320.64204884 -142.04380836 318.60158047 -142.04416954 316.56111211 C-142.04435235 315.54828642 -142.04453516 314.53546073 -142.04472351 313.49194336 C-142.04490406 312.47787409 -142.04508461 311.46380481 -142.04527063 310.41900617 C-142.04880994 293.99882114 -142.07581847 277.57876744 -142.1132214 261.15862793 C-142.15135844 244.28042517 -142.17066791 227.40228748 -142.17096955 210.5240407 C-142.17155295 201.05558851 -142.1799695 191.58729295 -142.20896721 182.11888123 C-142.23355355 174.05404693 -142.24071535 165.98942636 -142.22571968 157.92456466 C-142.21857992 153.81512973 -142.21928017 149.70611622 -142.24213028 145.59672928 C-142.43776134 108.17923211 -142.43776134 108.17923211 -130.6191864 91.3347168 C-130.18090515 90.65280273 -129.7426239 89.97088867 -129.2910614 89.26831055 C-123.31380521 80.49136252 -114.8344071 74.64729854 -105.4941864 69.8972168 C-104.52763123 69.4022168 -104.52763123 69.4022168 -103.54154968 68.8972168 C-94.02956036 64.29642662 -85.01140405 64.06520714 -74.5566864 64.2097168 C-73.30951843 64.21874023 -72.06235046 64.22776367 -70.77738953 64.23706055 C-67.72445136 64.26045471 -64.67192335 64.29323506 -61.6191864 64.3347168 C-61.63731384 63.61533936 -61.65544128 62.89596191 -61.67411804 62.15478516 C-61.91380634 45.78612885 -55.11711728 32.38866106 -43.91215515 20.6394043 C-43.15547546 19.87885742 -42.39879578 19.11831055 -41.6191864 18.3347168 C-40.95531921 17.63604492 -40.29145203 16.93737305 -39.60746765 16.2175293 C-29.07202222 5.90282654 -14.64568428 0.07161454 0 0 Z M-21.4941864 44.1472168 C-29.67246429 54.25433382 -29.76875484 64.78800784 -29.75289917 77.25764465 C-29.75516473 78.56330672 -29.75743028 79.8689688 -29.75976449 81.21419638 C-29.76586744 84.82758479 -29.76575068 88.44095001 -29.76457012 92.05434239 C-29.76436573 95.95560951 -29.76988848 99.85686926 -29.77462769 103.75813293 C-29.78292646 111.39733928 -29.78568217 119.03653791 -29.78624006 126.67574839 C-29.78671557 132.88640486 -29.78877208 139.09705879 -29.79194069 145.30771446 C-29.80074502 162.92371117 -29.80536039 180.53970179 -29.80461022 198.15570072 C-29.80457026 199.10495425 -29.8045303 200.05420778 -29.80448914 201.03222656 C-29.80444826 201.98264167 -29.80440737 202.93305679 -29.80436525 203.91227236 C-29.80395881 219.31481473 -29.81352855 234.71733266 -29.8276275 250.11986796 C-29.84199656 265.94257323 -29.8488974 281.76526658 -29.84803373 297.58797854 C-29.84770195 306.46822212 -29.85044066 315.34844006 -29.86121178 324.22867775 C-29.87032372 331.78933941 -29.8724863 339.34996382 -29.86570235 346.91062859 C-29.86244071 350.76602448 -29.86236761 354.62134892 -29.8710556 358.47673798 C-29.88038861 362.66149188 -29.87413533 366.84608083 -29.86642456 371.03083801 C-29.87156812 372.24203821 -29.87671169 373.45323842 -29.88201112 374.70114166 C-29.8320089 386.99055723 -28.26614814 397.01606208 -19.76371765 406.37768555 C-10.35147139 415.18875041 -0.18865234 416.48970458 12.26663208 416.46842957 C13.24560996 416.47069512 14.22458784 416.47296068 15.23323172 416.47529489 C18.50484988 416.48161144 21.77642636 416.48080703 25.04804993 416.47998047 C27.39735976 416.48297341 29.74666909 416.48637626 32.09597778 416.49015808 C38.47206705 416.49898832 44.84814289 416.50133578 51.22423768 416.50197387 C55.87818381 416.50280426 60.53212697 416.50570452 65.18607205 416.50881035 C77.70612624 416.51711089 90.22617332 416.52085313 102.74623016 416.52014061 C103.45652404 416.52010065 104.16681793 416.5200607 104.89863586 416.52001953 C105.60980179 416.51997865 106.32096772 416.51993777 107.05368414 416.51989565 C118.57631418 416.51948929 130.09891153 416.52905755 141.62153212 416.5431579 C153.46659433 416.5575379 165.3116406 416.56442719 177.15671176 416.56356412 C183.80130301 416.56323272 190.44586413 416.56615068 197.09044838 416.57674217 C203.34080351 416.58643339 209.59108632 416.58649525 215.84144402 416.57922554 C218.13191967 416.57818099 220.42239984 416.58053487 222.71286774 416.586586 C225.84667776 416.59432716 228.98023934 416.58964697 232.11404419 416.58195496 C233.4639307 416.5896703 233.4639307 416.5896703 234.84108764 416.59754151 C246.28032103 416.53576818 255.77938843 414.33027503 264.42378235 406.47924805 C273.07671327 397.23592525 274.54301361 387.24622755 274.50106812 374.98902893 C274.50192254 374.06833223 274.50277696 373.14763553 274.50365728 372.19903892 C274.50529962 369.12518561 274.49981114 366.05138732 274.49433899 362.97753906 C274.49405682 360.76963807 274.49421543 358.56173699 274.49478149 356.35383606 C274.49506832 350.36682998 274.48919011 344.37984395 274.48220754 338.39284253 C274.47595491 332.133473 274.47536869 325.87410301 274.47418213 319.61473083 C274.4714275 309.11098914 274.46518191 298.60725365 274.45625305 288.10351562 C274.44706771 277.28678423 274.43999237 266.47005483 274.43574524 255.65332031 C274.43548252 254.98607237 274.43521979 254.31882442 274.43494911 253.63135684 C274.43364403 250.28381934 274.43238033 246.93628181 274.4311372 243.58874428 C274.42068557 215.83739667 274.40309701 188.08605725 274.3808136 160.3347168 C273.67052505 160.33107117 272.96023651 160.32742554 272.22842407 160.32366943 C265.47751731 160.28552891 258.72699845 160.22838641 251.97643757 160.15081406 C248.50729007 160.11159488 245.03838669 160.07928337 241.56904602 160.0637207 C237.56449796 160.04543502 233.5608574 159.99537504 229.55659485 159.9440918 C228.33313858 159.94286316 227.10968231 159.94163452 225.84915161 159.94036865 C207.51771898 159.63410048 191.75467688 151.93002544 179.00190735 138.9050293 C164.18797889 122.01063373 162.19844951 102.8591968 162.28315735 81.26049805 C162.28502731 79.84132436 162.28644847 78.42215003 162.28744507 77.00297546 C162.29122479 73.3057775 162.30101507 69.60862014 162.31214905 65.91143799 C162.32246206 62.12350005 162.32696367 58.33555542 162.33198547 54.54760742 C162.34264242 47.14329223 162.35966272 39.73901025 162.3808136 32.3347168 C141.69212248 32.28793932 121.00344012 32.25269981 100.3147068 32.23109245 C90.7079809 32.2207919 81.10128791 32.20675495 71.49458313 32.18383789 C63.11871231 32.16386659 54.74286534 32.15099149 46.36697137 32.14653981 C41.93443815 32.14393876 37.50197313 32.13785068 33.06946182 32.12325668 C28.89165644 32.10961363 24.71394692 32.10550767 20.53612137 32.10850143 C19.00838702 32.10795427 17.48064925 32.10401705 15.95293427 32.09630585 C1.34194789 32.02621577 -10.98237224 32.91817864 -21.4941864 44.1472168 Z M194.3808136 34.3347168 C194.30574397 40.5928292 194.25178403 46.85067017 194.21601868 53.10913086 C194.20108327 55.23092219 194.18072754 57.3526835 194.15449524 59.47436523 C193.70290863 82.87563973 193.70290863 82.87563973 201.1308136 104.7722168 C201.48151917 105.4327002 201.83222473 106.09318359 202.19355774 106.77368164 C206.95687464 115.52201677 212.23729409 122.81142092 221.3808136 127.3347168 C224.72752868 128.13983796 227.82626553 128.45750534 231.26289368 128.44824219 C232.67379021 128.44812889 232.67379021 128.44812889 234.1131897 128.44801331 C235.1154509 128.44285202 236.1177121 128.43769073 237.15034485 128.43237305 C238.18648422 128.4309581 239.2226236 128.42954315 240.29016113 128.42808533 C243.59124163 128.42249922 246.89225368 128.40994922 250.1933136 128.3972168 C252.43484908 128.3922 254.67638562 128.38763741 256.91792297 128.38354492 C262.40557644 128.37253433 267.89319013 128.35580998 273.3808136 128.3347168 C272.44715004 127.076865 271.51164435 125.82038045 270.57539368 124.56445312 C270.0546376 123.86459793 269.53388153 123.16474274 268.99734497 122.44367981 C266.49469758 119.17867 263.79003754 116.10475982 261.0683136 113.0222168 C256.48530038 107.78430177 252.00449977 102.48556749 247.6230011 97.0769043 C245.07827765 93.96471639 242.48466979 90.89741806 239.8808136 87.8347168 C236.52629264 83.88825556 233.20859398 79.91829445 229.9433136 75.8972168 C226.48806903 71.65078922 222.95374784 67.48183256 219.3808136 63.3347168 C213.85125308 56.91430198 208.45827194 50.39262655 203.14009094 43.7956543 C201.88922831 42.24437449 200.63505772 40.69576387 199.3808136 39.1472168 C198.2670636 37.76469727 198.2670636 37.76469727 197.1308136 36.35424805 C196.5533136 35.68780273 195.9758136 35.02135742 195.3808136 34.3347168 C195.0508136 34.3347168 194.7208136 34.3347168 194.3808136 34.3347168 Z M-72.6191864 96.6472168 C-73.54086609 96.66977539 -74.46254578 96.69233398 -75.41215515 96.71557617 C-87.39909076 97.18051373 -94.32156887 100.63343139 -102.6191864 109.3347168 C-110.33987894 118.4497123 -109.76721293 130.0006374 -109.75289917 141.25764465 C-109.75516473 142.56330672 -109.75743028 143.8689688 -109.75976449 145.21419638 C-109.76586744 148.82758479 -109.76575068 152.44095001 -109.76457012 156.05434239 C-109.76436573 159.95560951 -109.76988848 163.85686926 -109.77462769 167.75813293 C-109.78292646 175.39733928 -109.78568217 183.03653791 -109.78624006 190.67574839 C-109.78671557 196.88640486 -109.78877208 203.09705879 -109.79194069 209.30771446 C-109.80074502 226.92371117 -109.80536039 244.53970179 -109.80461022 262.15570072 C-109.80457026 263.10495425 -109.8045303 264.05420778 -109.80448914 265.03222656 C-109.80444826 265.98264167 -109.80440737 266.93305679 -109.80436525 267.91227236 C-109.80395881 283.31481473 -109.81352855 298.71733266 -109.8276275 314.11986796 C-109.84199656 329.94257323 -109.8488974 345.76526658 -109.84803373 361.58797854 C-109.84770195 370.46822212 -109.85044066 379.34844006 -109.86121178 388.22867775 C-109.87032372 395.78933941 -109.8724863 403.34996382 -109.86570235 410.91062859 C-109.86244071 414.76602448 -109.86236761 418.62134892 -109.8710556 422.47673798 C-109.88038861 426.66149188 -109.87413533 430.84608083 -109.86642456 435.03083801 C-109.87156812 436.24203821 -109.87671169 437.45323842 -109.88201112 438.70114166 C-109.8320089 450.99055723 -108.26614814 461.01606208 -99.76371765 470.37768555 C-90.35147139 479.18875041 -80.18865234 480.48970458 -67.73336792 480.46842957 C-66.75439004 480.47069512 -65.77541216 480.47296068 -64.76676828 480.47529489 C-61.49515012 480.48161144 -58.22357364 480.48080703 -54.95195007 480.47998047 C-52.60264024 480.48297341 -50.25333091 480.48637626 -47.90402222 480.49015808 C-41.52793295 480.49898832 -35.15185711 480.50133578 -28.77576232 480.50197387 C-24.12181619 480.50280426 -19.46787303 480.50570452 -14.81392795 480.50881035 C-2.29387376 480.51711089 10.22617332 480.52085313 22.74623016 480.52014061 C23.45652404 480.52010065 24.16681793 480.5200607 24.89863586 480.52001953 C25.60980179 480.51997865 26.32096772 480.51993777 27.05368414 480.51989565 C38.57631418 480.51948929 50.09891153 480.52905755 61.62153212 480.5431579 C73.46659433 480.5575379 85.3116406 480.56442719 97.15671176 480.56356412 C103.80130301 480.56323272 110.44586413 480.56615068 117.09044838 480.57674217 C123.34080351 480.58643339 129.59108632 480.58649525 135.84144402 480.57922554 C138.13191967 480.57818099 140.42239984 480.58053487 142.71286774 480.586586 C145.84667776 480.59432716 148.98023934 480.58964697 152.11404419 480.58195496 C153.4639307 480.5896703 153.4639307 480.5896703 154.84108764 480.59754151 C166.28032103 480.53576818 175.77938843 478.33027503 184.42378235 470.47924805 C190.74004191 463.73202834 193.48888453 457.55028068 193.3808136 448.3347168 C192.35174298 448.33325024 191.32267237 448.33178368 190.26241779 448.33027267 C165.1887918 448.29362978 140.11529888 448.2341174 115.04178333 448.15081406 C102.91626586 448.11105464 90.790813 448.07864638 78.66523743 448.0637207 C68.09295777 448.05068817 57.52082046 448.02368251 46.94862098 447.98010373 C41.35399899 447.9575251 35.75955234 447.94180397 30.16488075 447.94283295 C24.89119309 447.94358168 19.61789249 447.92554537 14.34430504 447.89354897 C12.41632733 447.88508087 10.48830606 447.88327886 8.56031799 447.88891411 C-11.50860157 447.93972669 -27.153858 443.51015819 -41.89653015 429.1159668 C-54.77494265 415.96040052 -60.9287438 401.3388062 -60.8976593 383.02148438 C-60.9034517 381.79366682 -60.90924411 380.56584927 -60.91521204 379.30082512 C-60.92923318 375.9097685 -60.93443908 372.51890914 -60.93586063 369.1278379 C-60.93956615 365.46466213 -60.95472734 361.8015313 -60.96847534 358.13838196 C-60.9907159 351.79735793 -61.00574842 345.45634996 -61.01584244 339.11529541 C-61.03044705 329.94727591 -61.05598886 320.77931236 -61.08417372 311.61132574 C-61.12960935 296.7357717 -61.1662375 281.8602096 -61.1973114 266.98461914 C-61.22751017 252.53701359 -61.26186655 238.08942776 -61.30180359 223.6418457 C-61.30426514 222.75083581 -61.30672669 221.85982592 -61.30926283 220.94181573 C-61.32163769 216.47174331 -61.33409417 212.00167113 -61.34659123 207.53159904 C-61.45011067 170.46599885 -61.53932987 133.40037515 -61.6191864 96.3347168 C-65.28632943 96.3347168 -68.95507992 96.51582462 -72.6191864 96.6472168 Z " fill="#FFFFFF" transform="translate(173.6191864013672,-0.334716796875)"/>
<path d="M0 0 C1.29391159 -0.00990463 2.58782318 -0.01980927 3.92094421 -0.03001404 C5.34260655 -0.0257765 6.76426796 -0.02121869 8.18592834 -0.01637268 C9.69268296 -0.02207892 11.19943325 -0.02904416 12.70617676 -0.03717041 C16.78886841 -0.05508906 20.87134499 -0.05393591 24.95406413 -0.04822803 C28.36607676 -0.04513429 31.77804819 -0.05123068 35.19005495 -0.05726677 C43.24112324 -0.07130614 51.2920854 -0.06975562 59.34315491 -0.05836487 C67.64115064 -0.04688398 75.93882315 -0.06096005 84.23677629 -0.08776134 C91.36903021 -0.10993266 98.50118277 -0.11655251 105.63346869 -0.11068493 C109.88980797 -0.10731759 114.14594008 -0.10971553 118.40225029 -0.12693596 C122.40544095 -0.14242595 126.40815354 -0.13842714 130.41132545 -0.11963081 C131.87742905 -0.11595058 133.34356822 -0.11903696 134.80963898 -0.1295166 C148.5695602 -0.22033785 148.5695602 -0.22033785 154.47914124 4.38768005 C158.16547007 8.16853014 158.78275503 11.26896874 158.97914124 16.38768005 C158.79544302 21.50589235 158.04910711 24.52825749 154.47914124 28.38768005 C149.50394496 32.98973661 145.98643148 33.51006843 139.35064697 33.52812195 C138.09314133 33.53383209 136.83563568 33.53954224 135.5400238 33.54542542 C134.1488801 33.54667069 132.75773629 33.5477958 131.36659241 33.54881287 C129.89954504 33.55344289 128.43249887 33.5584678 126.9654541 33.56385803 C122.98187738 33.57696592 118.9983175 33.5834238 115.01472259 33.58786869 C112.52477973 33.59080191 110.03484145 33.59490718 107.54490089 33.59937286 C99.75103692 33.61304331 91.95718345 33.62271228 84.16330832 33.62657475 C75.17266167 33.63105508 66.18216707 33.64860364 57.19156665 33.67757535 C50.23771548 33.6992044 43.28390707 33.70927968 36.33002263 33.71061587 C32.17874859 33.71166299 28.02761758 33.71755092 23.87637901 33.73543549 C19.97015609 33.75193747 16.0641834 33.75406145 12.157938 33.74529648 C10.72730463 33.74452725 9.29665767 33.74885379 7.86605835 33.75875473 C-7.58098813 33.85935978 -7.58098813 33.85935978 -13.26304626 28.8525238 C-17.88026794 22.62723527 -18.39067591 18.11719149 -17.52085876 10.38768005 C-14.43934876 2.76359926 -7.94482389 0.01722091 0 0 Z " fill="#FFFFFF" transform="translate(225.52085876464844,223.61231994628906)"/>
<path d="M0 0 C1.50690384 -0.00542551 3.01380237 -0.01255057 4.52069092 -0.02124023 C8.59926185 -0.03942579 12.67742659 -0.03242598 16.75600433 -0.01972389 C21.03152024 -0.0095714 25.30700221 -0.01899581 29.58251953 -0.02526855 C36.76145651 -0.03253843 43.94022869 -0.02297465 51.11914062 -0.00390625 C59.40978515 0.01786129 67.70003616 0.01080945 75.99067116 -0.01121187 C83.11871004 -0.02938474 90.24663071 -0.03191499 97.37468529 -0.0214572 C101.62764305 -0.01523261 105.88041605 -0.01435802 110.13336182 -0.02760315 C114.13248291 -0.03918861 118.13109842 -0.03108724 122.1301651 -0.00802612 C123.59464937 -0.00275334 125.05917646 -0.00422829 126.52364349 -0.01307678 C140.26775986 -0.08844145 140.26775986 -0.08844145 146.1796875 4.51757812 C149.86601634 8.29842821 150.4833013 11.39886681 150.6796875 16.51757812 C150.48969208 21.63478806 149.80802413 24.6982764 146.1796875 28.51757812 C140.69823889 32.74286143 136.92815194 33.63925989 130.1338501 33.65802002 C128.89461792 33.66373016 127.65538574 33.66944031 126.37860107 33.67532349 C125.00793467 33.67656876 123.63726815 33.67769387 122.26660156 33.67871094 C120.82088088 33.68334109 119.37516141 33.68836602 117.92944336 33.6937561 C114.0036489 33.70686395 110.07787152 33.71332202 106.1520586 33.71776676 C103.69761997 33.72070037 101.24318598 33.72480574 98.78874969 33.72927094 C91.10434054 33.74294221 83.41994203 33.75261042 75.73552155 33.75647283 C66.87449506 33.76095146 58.01362299 33.77849181 49.15264344 33.80747342 C42.29728959 33.82911438 35.44197911 33.83917841 28.58659148 33.84051394 C24.49508839 33.84156033 20.40373052 33.84743255 16.31226349 33.86533356 C12.46102839 33.88185588 8.61004705 33.88394971 4.75878906 33.87519455 C3.34953887 33.87442637 1.94027479 33.87873792 0.53105927 33.8886528 C-16.11612192 33.9988582 -16.11612192 33.9988582 -21.36526108 29.06560135 C-25.8881958 23.83470553 -26.17431772 20.2374144 -26.09375 13.50195312 C-25.72158522 9.44004039 -24.66282169 7.43297216 -21.8203125 4.51757812 C-15.14453667 -0.68356032 -8.15775531 -0.04929018 0 0 Z " fill="#FFFFFF" transform="translate(233.8203125,303.482421875)"/>
</svg>
