<?xml version="1.0" encoding="UTF-8"?>
<svg version="1.1" xmlns="http://www.w3.org/2000/svg" width="512" height="512">
<path d="M0 0 C0.80131348 0.17160645 1.60262695 0.34321289 2.42822266 0.52001953 C20.97888296 4.52816567 38.31779985 10.97825922 55 20 C55.61746094 20.3314502 56.23492187 20.66290039 56.87109375 21.00439453 C65.03094248 25.41856217 72.65377939 30.32844974 80 36 C80.80695313 36.61359375 81.61390625 37.2271875 82.4453125 37.859375 C124.18804713 70.34085983 154.41102749 117.3417979 161.60522461 170.10400391 C162.35437641 177.49730284 162.39418074 184.88677489 162.375 192.3125 C162.37412384 193.14526459 162.37324768 193.97802917 162.37234497 194.83602905 C162.23230409 235.37956141 149.11368381 272.16590522 131 308 C130.54173828 308.91330078 130.08347656 309.82660156 129.61132812 310.76757812 C114.67809156 340.22224938 94.63669716 367.32315485 74 393 C73.25492187 393.928125 72.50984375 394.85625 71.7421875 395.8125 C63.44441611 406.04344393 54.85283563 416.03122843 46 425.78515625 C44.20396471 427.77412502 42.44046697 429.78563194 40.6875 431.8125 C36.16316686 436.99792291 31.47790445 442.03379187 26.79199219 447.0725708 C25.6345491 448.3174923 24.47791531 449.56316695 23.32226562 450.80975342 C12.00247903 463.00597111 0.32793699 474.82756779 -11.45166016 486.57861328 C-13.38239142 488.50669517 -15.30933648 490.43854102 -17.23637199 492.37031555 C-19.54839421 494.68679537 -21.86419362 496.99949115 -24.1796875 499.3125 C-25.03787079 500.17270752 -25.89605408 501.03291504 -26.78024292 501.91918945 C-27.56932037 502.70511475 -28.35839783 503.49104004 -29.17138672 504.30078125 C-29.86481171 504.99341064 -30.55823669 505.68604004 -31.27267456 506.3996582 C-33.97962873 508.90761172 -36.00920388 509.2761117 -39.625 509.5 C-40.44226563 509.5721875 -41.25953125 509.644375 -42.1015625 509.71875 C-50.35119533 507.67301895 -57.5647068 497.58088353 -63.37890625 491.75390625 C-64.35946881 490.77401947 -65.34017959 489.79428099 -66.32102966 488.81468201 C-68.36400213 486.7731736 -70.40518169 484.72989434 -72.44506836 482.68530273 C-75.03919866 480.08547596 -77.63779434 477.49016627 -80.2377634 474.89618015 C-82.26007825 472.87750604 -84.2799719 470.85642267 -86.29917717 468.8346386 C-87.71516246 467.41767676 -89.13313515 466.00270183 -90.55116272 464.58778381 C-95.0685589 460.05410611 -99.45814173 455.47246978 -103.61534119 450.60484314 C-105.31599478 448.63375667 -107.12769282 446.80774486 -109 445 C-112.19261312 441.8501997 -115.17161279 438.58780511 -118.09375 435.1875 C-120.30945648 432.64488601 -122.59098592 430.16889802 -124.875 427.6875 C-129.02245258 423.14475315 -132.93232695 418.45880038 -136.79296875 413.671875 C-138.91623338 411.1014095 -141.11811849 408.64080637 -143.375 406.1875 C-148.34824517 400.70922649 -152.88910975 394.93632846 -157.39550781 389.07568359 C-159.10142779 386.8687859 -160.82767064 384.67870044 -162.5546875 382.48828125 C-170.63260654 372.15776616 -178.1684831 361.53287744 -185.4375 350.625 C-185.8500705 350.0074585 -186.26264099 349.38991699 -186.68771362 348.75366211 C-195.13278228 336.08300154 -203.09512747 323.17407489 -210.0625 309.625 C-210.57143799 308.63806152 -211.08037598 307.65112305 -211.60473633 306.63427734 C-213.07884234 303.76066819 -214.54156053 300.88158574 -216 298 C-216.38575195 297.24460937 -216.77150391 296.48921875 -217.16894531 295.7109375 C-227.38678222 275.55830627 -234.26485309 254.05000078 -239 232 C-239.26683594 230.83114258 -239.26683594 230.83114258 -239.5390625 229.63867188 C-242.26541474 217.35926795 -242.30660523 204.9571478 -242.375 192.4375 C-242.3830365 191.61909637 -242.391073 190.80069275 -242.39935303 189.95748901 C-242.51589926 174.29418511 -240.89379424 158.82143218 -236.4375 143.75 C-236.18774414 142.89631836 -235.93798828 142.04263672 -235.68066406 141.16308594 C-226.9870969 112.77781754 -211.50896536 88.10831723 -192 66 C-191.56075195 65.49758789 -191.12150391 64.99517578 -190.66894531 64.47753906 C-144.33611013 11.68764457 -69.52045958 -15.94505954 0 0 Z M-92 29 C-92.77359863 29.24733887 -93.54719727 29.49467773 -94.34423828 29.74951172 C-121.25578392 38.55059819 -143.53286011 53.69673353 -164 73 C-164.73347656 73.6909375 -165.46695313 74.381875 -166.22265625 75.09375 C-171.63206014 80.34183966 -176.36953887 86.06044243 -181 92 C-181.43747559 92.56106445 -181.87495117 93.12212891 -182.32568359 93.70019531 C-189.50463884 102.98460313 -195.60093332 112.58248651 -201 123 C-201.31952637 123.60779297 -201.63905273 124.21558594 -201.96826172 124.84179688 C-221.97672242 163.37351105 -221.53768714 208.20201424 -208.70556641 248.87109375 C-196.85193113 285.43760165 -177.89475755 319.21080061 -155 350 C-154.53384277 350.63067383 -154.06768555 351.26134766 -153.58740234 351.91113281 C-143.97545394 364.90230657 -134.1102284 377.64343683 -123.60546875 389.92578125 C-121.24135813 392.69699155 -118.96156042 395.52927189 -116.6875 398.375 C-112.402493 403.64826087 -107.80695987 408.59381939 -103.13549805 413.52294922 C-99.57995002 417.27746952 -96.13884898 421.10802738 -92.74658203 425.01049805 C-89.89688522 428.25653933 -86.95805235 431.41528115 -84 434.5625 C-83.33427979 435.27140381 -82.66855957 435.98030762 -81.98266602 436.71069336 C-74.8085194 444.2923425 -67.4101314 451.64862381 -59.98242188 458.98071289 C-55.27284775 463.64762783 -50.68072423 468.33759724 -46.38476562 473.39038086 C-44.68749904 475.3632438 -42.87686782 477.1982069 -41 479 C-37.7760483 477.58460657 -35.64333208 475.88585072 -33.1875 473.375 C-32.56230469 472.74335938 -31.93710937 472.11171875 -31.29296875 471.4609375 C-29.4764442 469.51134556 -27.74732494 467.53386572 -26.01953125 465.5078125 C-20.31297477 458.95095394 -14.00520919 452.95005944 -7.82470703 446.84521484 C-2.24632334 441.3290132 3.29719614 435.83627085 8.38964844 429.85986328 C11.4256812 426.35342034 14.67247998 423.0411623 17.875 419.6875 C23.14536542 414.13244558 28.1755028 408.52493492 32.9375 402.52734375 C35.15297804 399.81254395 37.49040467 397.25466591 39.875 394.6875 C44.59233815 389.5552108 48.88397126 384.18066634 53.14453125 378.671875 C55.56578919 375.54173165 58.04252803 372.46064958 60.53515625 369.38720703 C75.5889524 350.7865286 89.09348645 330.75120004 101 310 C101.39638672 309.31405762 101.79277344 308.62811523 102.20117188 307.92138672 C129.49295153 260.50138735 146.8546199 206.33990869 132.3984375 151.8828125 C126.69626951 131.54956158 117.00607456 112.63419651 104 96 C103.26136719 95.05125 102.52273438 94.1025 101.76171875 93.125 C96.16167455 86.12245805 90.14051631 79.52659667 84 73 C83.01773438 71.93652344 83.01773438 71.93652344 82.015625 70.8515625 C75.95406382 64.50505614 69.03148395 59.21714633 62 54 C61.14390137 53.36143066 61.14390137 53.36143066 60.27050781 52.70996094 C17.36218698 21.1879952 -41.59493258 12.73503652 -92 29 Z " fill="#FFFFFF" transform="translate(296,3)"/>
<path d="M0 0 C17.82926692 16.78210751 26.68525141 40.26409777 27.65234375 64.44140625 C27.0350722 87.55050984 18.78701534 108.46614297 3.33984375 125.69140625 C2.788125 126.325625 2.23640625 126.95984375 1.66796875 127.61328125 C-13.51654509 144.00052886 -36.35005069 152.62704641 -58.30200195 153.66796875 C-82.41798109 154.28554956 -104.82283741 145.89906971 -122.66015625 129.69140625 C-123.29179687 129.14097656 -123.9234375 128.59054687 -124.57421875 128.0234375 C-140.17111616 113.6016488 -149.73538033 90.76021406 -150.66015625 69.69140625 C-150.70011719 68.9540625 -150.74007812 68.21671875 -150.78125 67.45703125 C-151.48976617 41.95044922 -141.37182755 18.99741892 -124.03515625 0.56640625 C-88.97000866 -33.14382838 -35.81112182 -31.07837444 0 0 Z M-112.97265625 26.50390625 C-123.37728108 41.6798827 -127.95665975 58.41407565 -124.66015625 76.69140625 C-120.69931232 94.10465458 -110.67440519 108.89010454 -95.66015625 118.69140625 C-78.70384079 128.55351565 -61.49977558 130.63704687 -42.66015625 125.69140625 C-26.08986748 120.48247799 -12.82509031 108.90606386 -4.66015625 93.69140625 C2.66105673 77.96435615 4.60017883 61.39842577 -0.84765625 44.81640625 C-4.84998046 33.94969692 -10.58750593 25.93642633 -18.66015625 17.69140625 C-19.17835938 17.13710937 -19.6965625 16.5828125 -20.23046875 16.01171875 C-30.95963347 5.61959585 -47.12986079 0.93981827 -61.66015625 0.31640625 C-82.66473523 1.21759281 -99.78505509 10.33957621 -112.97265625 26.50390625 Z " fill="#FFFFFF" transform="translate(317.66015625,145.30859375)"/>
</svg>
